<?xml version="1.0" standalone="no"?><!DOCTYPE svg PUBLIC "-//W3C//DTD SVG 1.1//EN" "http://www.w3.org/Graphics/SVG/1.1/DTD/svg11.dtd"><svg t="1536240111474" class="icon" style="" viewBox="0 0 1024 1024" version="1.1" xmlns="http://www.w3.org/2000/svg" p-id="8160" xmlns:xlink="http://www.w3.org/1999/xlink" width="200" height="200"><defs><style type="text/css"></style></defs><path d="M515.28 864c-135.792 0-256.576-84.096-303.776-210.336-25.968-3.488-49.2-14.128-66.256-30.512-17.296-16.64-26.816-38.176-26.816-60.64 0-41.296 31.728-76.304 78.464-88.128 25.36-132.496 93.568-194.56 143.216-229.92l2.352-1.68 2.8-0.752c1.376-0.592 18.112-9.296 73.168-94.096l35.536-54.704-7.872 83.744 100.496-105.024-10.992 54.208c-8.304 40.864-4.144 57.936 0.816 65.072 1.856 2.672 5.04 5.92 13.36 7.248 181.056 28.832 273.344 162.032 285.072 278.112 42.752 13.664 70.688 47.04 70.688 85.92 0 43.6-35.6 80.128-85.984 89.84C772.656 779.344 651.6 864 515.28 864zM356.592 272.016c-49.84 35.888-108.944 93.392-130.064 218.464l-1.904 11.248-11.264 1.856c-37.04 6.144-62.928 30.352-62.928 58.912 0 13.68 6.032 27.024 17.008 37.584 13.856 13.328 33.968 21.376 56.624 22.656l10.8 0.608 3.456 10.24C278.416 752.272 389.712 832 515.28 832c125.824 0 237.248-80.016 277.216-199.088l3.232-9.616 10.08-1.184c39.888-4.688 67.744-29.184 67.744-59.616 0-26.944-23.008-50.192-57.232-57.824l-11.824-2.624-0.656-12.096c-5.888-106.24-89.472-232.88-259.072-259.888-15.168-2.416-26.832-9.344-34.624-20.608-7.152-10.336-10.88-23.872-11.2-41.408l-93.424 97.648 4.672-49.024C377.952 260.672 363.888 269.376 356.592 272.016z" p-id="8161" fill="#1296db"></path><path d="M456 565.52l-160 0L296 440.32l160 0L456 565.52zM328 533.52l96 0L424 472.32l-96 0L328 533.52z" p-id="8162" fill="#1296db"></path><path d="M720 565.52 560 565.52 560 440.32l160 0L720 565.52zM592 533.52l96 0L688 472.32l-96 0L592 533.52z" p-id="8163" fill="#1296db"></path><path d="M500.112 691.904l107.472-44.784c8.16-3.408 17.52 0.448 20.928 8.608l0 0c3.392 8.16-0.448 17.52-8.608 20.928l-107.472 44.784c-8.16 3.408-17.52-0.448-20.928-8.608l0 0C488.112 704.672 491.952 695.296 500.112 691.904z" p-id="8164" fill="#1296db"></path></svg>